# xmcd CD database file
#
# Track frame offsets:
#	182
#	11912
#	22837
#	41002
#	55445
#	68515
#	88395
#	102307
#	113505
#	125392
#	143420
#	162800
#	179940
#	190330
#	200827
#
# Disc length: 2842 seconds
#
# Revision: 4
# Processed by: cddbd v1.5.2PL0 Copyright (c) Steve Scherf et al.
# Submitted via: CDex 1.51
#
DISCID=d30b180f
DTITLE=Hank Williams, Jr. - The Complete Hank Williams, Jr. 2
DYEAR=1999
DGENRE=Country
TTITLE0=Mobile Boogie
TTITLE1=I Fought The Law
TTITLE2=Family Tradition
TTITLE3=Whiskey Bent And Hell Bound
TTITLE4=Women I've Never Had
TTITLE5=Kaw-Liga
TTITLE6=Old Habits
TTITLE7=Texas Women
TTITLE8=Dixie On My Mind
TTITLE9=All My Rowdy Friends (Have Settled Down)
TTITLE10=A Country Boy Can Survive
TTITLE11=All For The Love Of Sunshine
TTITLE12=Honky Tonkin'
TTITLE13=The American Dream
TTITLE14=If Heaven Ain't A Lot Like Dixie
EXTD=YEAR: 1999
EXTT0=
EXTT1=
EXTT2=
EXTT3=
EXTT4=
EXTT5=
EXTT6=
EXTT7=
EXTT8=
EXTT9=
EXTT10=
EXTT11=
EXTT12=
EXTT13=
EXTT14=
PLAYORDER=
